<svg xmlns="http://www.w3.org/2000/svg" width="323.06" height="261.399" viewBox="0 0 323.06 261.399"><defs><style>.a{fill:#edf4ff;}.b{fill:#163560;}.c{fill:#e49963;}.d{fill:#4a75cb;}.e{fill:#a6c7f9;}.f{fill:#e58638;}.g{fill:#ee9849;}.h{fill:#1c468a;}.i{fill:#739af0;}.j{fill:#d68d5d;}.k{fill:#2b478b;}</style></defs><g transform="translate(-243.636 -11.077)"><path class="a" d="M530.27,708.666C517,697.349,501.009,629.1,446.217,664.646c-28.308,18.365-76.042-15.766-115.552-3.977-36.285,10.827-39.783,46.5-36.272,58.122,7.092,23.479-14.978,26.973-35.451,37.061-32.114,15.824-8.314,72.026,22.024,72.291s213.9,0,213.9,0,44.125-1.008,62.453-25.333C577.041,776.633,564.539,737.9,530.27,708.666Z" transform="translate(0 -556.18)"/><g transform="translate(336.525 11.077)"><path class="b" d="M1661.806,1823.488s.751,12.12,3.1,12.294c.312.023,11.893.023,11.893.023l14.783-.086s-.1-3.562-4.418-4.315-11.554-3.79-14.172-9.5C1670.235,1815.893,1661.806,1823.488,1661.806,1823.488Z" transform="translate(-1562.431 -1574.405)"/><g transform="translate(38.386 44.519)"><path class="c" d="M1601.627,805.073s6.44,1.654,10.534.421,11.141.792,12.275,2.285.718,2.086-1.307,2.6-9.2,3.575-13.913,1.8a37.571,37.571,0,0,0-10.864-1.835Z" transform="translate(-1545.965 -741.948)"/><path class="d" d="M1211.939,346.635s7.235,51.421,19.215,56.027c5.911,2.272,32.036,7.424,39.764,7.941,0,0,1.893-1.536,1.432-7.787,0,0-27.371-10.049-31.259-15.513-5.787-8.133,3.593-33.226-3.669-40.864S1217.93,335.518,1211.939,346.635Z" transform="translate(-1211.939 -339.457)"/></g><path class="e" d="M1053.784,1332.171V1320.96h-17.651a.868.868,0,0,1-.866-.866v-1.8a.869.869,0,0,1,.866-.866h17.651v-63.821a3.266,3.266,0,0,1,3.256-3.256h3.493a3.266,3.266,0,0,1,3.256,3.256v63.821h17.651a.869.869,0,0,1,.866.866v1.8a.869.869,0,0,1-.866.866h-17.651v11.211c12.771.966,23,5.563,25.873,11.5H1027.91C1030.78,1337.734,1041.013,1333.137,1053.784,1332.171Z" transform="translate(-1014.473 -1082.344)"/><path class="f" d="M1171.028,998.986a90.091,90.091,0,0,0,7.067,10.112c7.776,9.817,16.24,17.91,17.715,25.561a34.659,34.659,0,0,0,1.367,4.9c.616,1.753,1.377,3.6,2.256,5.5a169.459,169.459,0,0,0,13.161,22.5c8.517,12.62,16.526,23.151,16.526,23.151l14.688-.626c-.588-1.472-6.994-18.9-15.564-40.192-3.48-8.645-7.18-17.84-10.75-26.708q-.713-1.776-1.422-3.532c-1.092-2.714-2.166-5.385-3.214-7.986-8.047-20-14.456-35.918-14.456-35.918s-32.16-12.183-35.5-4.289C1160.147,977.964,1162.391,984.341,1171.028,998.986Z" transform="translate(-1130.203 -838.954)"/><path class="b" d="M1351.7,1592.954s-10.216,6.565-9.224,8.7c.132.284,5.777,10.4,5.777,10.4l7.282,12.866s3.063-1.821,1.614-5.961-2.324-11.936,1.387-17.006C1362.435,1596.611,1351.7,1592.954,1351.7,1592.954Z" transform="translate(-1286.329 -1378.496)"/><path class="g" d="M1209,977.405s40.367,25.145,44.874,42.043-53.7,52.947-53.7,52.947-6.384-5.633-7.51-9.763c0,0,26.309-31.52,32.016-38.586,3.5-4.34-51.824-15.022-58.583-25.536s-4.339-19.361-4.339-19.361Z" transform="translate(-1129.809 -846.398)"/><path class="h" d="M11.265,0H77.36A11.265,11.265,0,0,1,88.625,11.265v0A11.266,11.266,0,0,1,77.359,22.532H11.266A11.266,11.266,0,0,1,0,11.265v0A11.265,11.265,0,0,1,11.265,0Z" transform="translate(0 163.296)"/><path class="c" d="M1250.54,195.29a22.781,22.781,0,0,1,6.15,5.573c-9.671,2.5-25.7-6.46-25.7-6.46a23.723,23.723,0,0,0,8.531-13.373q.175-.7.317-1.426a29.034,29.034,0,0,0,.523-5.032l4.443,3.98,7.387,6.618a63.429,63.429,0,0,1-1.092,7.47Q1250.855,193.876,1250.54,195.29Z" transform="translate(-1190.019 -152.407)"/><path class="i" d="M1154.136,342.715c1.385,18.631-.945,46.956.627,51.863,1.356,4.234,17.316,1.728,23.484.314,2.283-.523,5.049-1.27,7.9-2.154,7.966-2.467,16.646-5.989,17.578-8.6a2.19,2.19,0,0,0,.086-.3,2.4,2.4,0,0,0-.017-1.1c-.311-1.333-1.507-2.775-1.648-6.075-.157-3.685-.134-8.024-.272-12.69-.007-.525-.014-1.1-.072-1.621l0-.191c0-.1,0-.2-.007-.3-.134-5.2-.406-10.674-.721-16.1-.2-3.407-.432-6.782-.7-10.015-.695-8.346-1.631-15.768-2.87-20.46-2.025-7.649-6.49-12.637-10.555-16.293l-2.939-2.522a17,17,0,0,1-10.667-1.421c-3.8-1.8-5.108-3.095-5.769-2.608C1158.807,299.208,1152.5,319.938,1154.136,342.715Z" transform="translate(-1123.363 -254.208)"/><path class="d" d="M1299.156,749.276c7.966-2.467,16.646-5.989,17.578-8.6a2.207,2.207,0,0,0,.086-.3c0-.365-.009-.731-.017-1.1-.31-1.333-1.507-2.775-1.648-6.075-.158-3.685-.134-8.024-.272-12.69-.007-.525-.014-1.1-.072-1.621l0-.191c0-.1,0-.2-.007-.3l-30.091-13.647S1282.977,729.005,1299.156,749.276Z" transform="translate(-1236.412 -610.71)"/><path class="j" d="M1303.742,210.544a63.442,63.442,0,0,1-1.092,7.47c-7.213-2.331-10.486-8.846-11.578-11.61-.311-.781-.446-1.263-.446-1.263l.763-.162,4.966-1.052Z" transform="translate(-1241.572 -177.781)"/><path class="c" d="M1295,84.2s-15.848,1.788-16.809-8.1-3.654-16.314,6.424-17.873,12.413,2.022,13.537,5.244S1299.093,83.485,1295,84.2Z" transform="translate(-1229.906 -51.514)"/><path class="k" d="M1251.74,36.351s1-13.123,15.43-14.482c9.881-.931,4.372-9.435,3.319-10.792,0,0-7.57,1.038-15.33,2.32C1238.872,16.088,1250.14,34.308,1251.74,36.351Z" transform="translate(-1203.391 -11.077)"/><g transform="translate(86.377 84.206)"><rect class="d" width="1.459" height="38.193" transform="translate(40.07 36.775) rotate(-161.999)"/><rect class="d" width="40.079" height="2.398" transform="translate(40.07 36.775) rotate(-178.776)"/></g><g transform="translate(41.579 47.82)"><path class="c" d="M1573.6,863.385s6.219,2.354,10.424,1.58,10.985,2.016,11.948,3.625.484,2.152-1.586,2.441-9.537,2.539-14.027.26a37.577,37.577,0,0,0-10.6-3.022Z" transform="translate(-1524.443 -795.656)"/><path class="i" d="M1235.49,369.794s1.522,51.905,12.921,57.8c5.624,2.911,31.022,10.911,38.645,12.277,0,0,2.051-1.317,2.282-7.581,0,0-26.1-13-29.358-18.865-4.855-8.721,7.234-32.627.858-41.02S1242.67,359.4,1235.49,369.794Z" transform="translate(-1235.49 -363.807)"/></g></g></g></svg>